<svg xmlns="http://www.w3.org/2000/svg" version="1.1" xmlns:xlink="http://www.w3.org/1999/xlink" xmlns:svgjs="http://svgjs.dev/svgjs" width="128" height="128" viewBox="0 0 128 128"><g transform="matrix(0.8046875,0,0,0.8046875,12.221578124999994,12.221578124999994)"><svg viewBox="0 0 96 96" data-background-color="#ffffff" preserveAspectRatio="xMidYMid meet" height="128" width="128" xmlns="http://www.w3.org/2000/svg" xmlns:xlink="http://www.w3.org/1999/xlink"><g id="tight-bounds" transform="matrix(1,0,0,1,0.25950000000000273,0.25950000000000273)"><svg viewBox="0 0 95.481 95.481" height="95.481" width="95.481"><g><svg viewBox="0 0 95.481 95.481" height="95.481" width="95.481"><g><svg viewBox="0 0 95.481 95.481" height="95.481" width="95.481"><g id="textblocktransform"><svg viewBox="0 0 95.481 95.481" height="95.481" width="95.481" id="textblock"><g><svg viewBox="0 0 95.481 95.481" height="95.481" width="95.481"><g><svg viewBox="0 0 95.481 95.481" height="95.481" width="95.481"><g><svg xmlns="http://www.w3.org/2000/svg" xmlns:xlink="http://www.w3.org/1999/xlink" version="1.1" x="0" y="0" viewBox="5 5 90 90" style="enable-background:new 0 0 100 100;" xml:space="preserve" height="95.481" width="95.481" class="icon-icon-0" data-fill-palette-color="accent" id="icon-0"><g fill="#f7d65a" data-fill-palette-color="accent"><path d="M84 5H16C9.9 5 5 9.6 5 15.3V67C5 72.7 9.9 77.3 16 77.3H23.2V92.6C23.2 93.5 23.8 94.4 24.7 94.8 25.1 95 25.4 95 25.8 95 26.4 95 27 94.8 27.5 94.5L50.2 77.3H84C90.1 77.3 95 72.7 95 67V15.3C95 9.6 90.1 5 84 5M89.9 66.9C89.9 69.9 87.3 72.3 84.1 72.3H49.2C48.6 72.3 48 72.5 47.5 72.8L28.4 87.3V74.7C28.4 73.4 27.2 72.3 25.8 72.3H16C12.8 72.3 10.2 69.9 10.2 66.9V15.5C10.2 12.5 12.8 10.1 16 10.1H84.2C87.4 10.1 90 12.5 90 15.5V66.9z" fill="#f7d65a" data-fill-palette-color="accent"></path><path d="M44.4 39.8C45.4 39.3 46.1 38.7 46.6 38.1 47.5 37 48 35.6 48 33.8 48 32.1 47.6 30.6 46.7 29.3 45.2 27.3 42.7 26.2 39.1 26.2H24.9V55.4H38.1C39.6 55.4 41 55.3 42.2 55 43.5 54.7 44.6 54.2 45.5 53.5 46.3 52.9 47 52.1 47.6 51.2 48.5 49.8 48.9 48.3 48.9 46.5 48.9 44.8 48.5 43.4 47.8 42.2 47 41.2 45.9 40.4 44.4 39.8M30.8 31.4H37.2C38.6 31.4 39.7 31.6 40.7 31.9 41.7 32.3 42.3 33.2 42.3 34.6 42.3 35.8 41.9 36.7 41.1 37.2S39.3 37.9 38 37.9H30.9V31.4zM40.8 49.9C40.1 50.2 39.1 50.4 37.8 50.4H30.7V42.6H37.9C39.2 42.6 40.1 42.8 40.8 43.1 42 43.7 42.7 44.7 42.7 46.2 42.7 48.1 42.1 49.3 40.8 49.9" fill="#f7d65a" data-fill-palette-color="accent"></path><polygon points="60.3,42.7 74.5,42.7 74.5,37.7 60.3,37.7 60.3,31.5 75.7,31.5 75.7,26.3 54.3,26.3 54.3,55.5 76.4,55.5 76.4,50.2    60.3,50.2  " fill="#f7d65a" data-fill-palette-color="accent"></polygon></g></svg></g></svg></g></svg></g></svg></g></svg></g><g></g></svg></g><defs></defs></svg><rect width="95.481" height="95.481" fill="none" stroke="none" visibility="hidden"></rect></g></svg></g></svg>