<svg xmlns="http://www.w3.org/2000/svg" version="1.1" xmlns:xlink="http://www.w3.org/1999/xlink" xmlns:svgjs="http://svgjs.dev/svgjs" width="1500" height="1500" viewBox="0 0 1500 1500"><rect width="1500" height="1500" fill="#ffffff"></rect><g transform="matrix(0.6666666666666666,0,0,0.6666666666666666,249.39393939393938,522.2024618935966)"><svg viewBox="0 0 396 180" data-background-color="#ffffff" preserveAspectRatio="xMidYMid meet" height="681" width="1500" xmlns="http://www.w3.org/2000/svg" xmlns:xlink="http://www.w3.org/1999/xlink"><g id="tight-bounds" transform="matrix(1,0,0,1,0.2400000000000091,0.3162045355784642)"><svg viewBox="0 0 395.52 179.36759092884307" height="179.36759092884307" width="395.52"><g><svg viewBox="0 0 395.52 179.36759092884307" height="179.36759092884307" width="395.52"><g transform="matrix(1,0,0,1,0,110.8563670648899)"><svg viewBox="0 0 395.52 68.51122386395316" height="68.51122386395316" width="395.52"><g id="textblocktransform"><svg viewBox="0 0 395.52 68.51122386395316" height="68.51122386395316" width="395.52" id="textblock"><g><svg viewBox="0 0 395.52 68.51122386395316" height="68.51122386395316" width="395.52"><g transform="matrix(1,0,0,1,0,0)"><svg width="395.52" viewBox="4 -35.5 263.18 45.51" height="68.51122386395316" data-palette-color="#f7d65a"><g class="wordmark-text-0" data-fill-palette-color="primary" id="text-0"><path d="M23.71 0L4 0 4-35.01 23.71-35.01 23.71-32.01 7.15-32.01 7.15-18.99 20.56-18.99 20.56-15.99 7.15-15.99 7.15-3 23.71-3 23.71 0ZM40.55 0L37.81 0Q36.45 0 35.24-0.51 34.03-1.03 33.14-1.93 32.25-2.83 31.72-4.03 31.2-5.22 31.2-6.59L31.2-6.59 31.2-22.14 26.71-22.14 26.71-25 31.2-25 31.2-31.01 34.2-31.49 34.2-25 40.55-25 40.55-22.14 34.2-22.14 34.2-6.45Q34.2-5.69 34.48-5.04 34.76-4.39 35.25-3.91 35.74-3.42 36.4-3.14 37.06-2.86 37.81-2.86L37.81-2.86 40.55-2.86 40.55 0ZM62.76 0L59.76 0 59.76-18.31Q59.76-19.21 59.42-20.01 59.08-20.8 58.49-21.39 57.91-21.97 57.11-22.31 56.32-22.66 55.41-22.66L55.41-22.66 53.41-22.66Q52.51-22.66 51.72-22.31 50.92-21.97 50.34-21.39 49.75-20.8 49.41-20.01 49.07-19.21 49.07-18.31L49.07-18.31 49.07 0 46.06 0 46.06-35.01 49.07-35.01 49.07-22.9Q50.09-24.12 51.53-24.8 52.97-25.49 54.66-25.49L54.66-25.49 55.41-25.49Q56.93-25.49 58.27-24.91 59.61-24.34 60.62-23.34 61.62-22.34 62.19-21 62.76-19.65 62.76-18.14L62.76-18.14 62.76 0ZM85.47-6.86L85.47-6.86Q85.47-5.35 84.89-4 84.32-2.66 83.32-1.66 82.32-0.66 80.97-0.09 79.63 0.49 78.12 0.49L78.12 0.49 76.12 0.49Q74.6 0.49 73.26-0.09 71.92-0.66 70.92-1.66 69.91-2.66 69.34-4 68.77-5.35 68.77-6.86L68.77-6.86 68.77-18.14Q68.77-19.65 69.34-21 69.91-22.34 70.92-23.34 71.92-24.34 73.26-24.91 74.6-25.49 76.12-25.49L76.12-25.49 78.12-25.49Q79.63-25.49 80.97-24.91 82.32-24.34 83.32-23.34 84.32-22.34 84.89-21 85.47-19.65 85.47-18.14L85.47-18.14 85.47-12.26 71.77-12.26 71.77-6.69Q71.77-5.79 72.11-4.99 72.45-4.2 73.04-3.61 73.63-3.03 74.42-2.69 75.21-2.34 76.12-2.34L76.12-2.34 78.12-2.34Q79.02-2.34 79.81-2.69 80.61-3.03 81.19-3.61 81.78-4.2 82.12-4.99 82.46-5.79 82.46-6.69L82.46-6.69 82.46-8.35 85.47-7.86 85.47-6.86ZM82.46-14.6L82.46-18.31Q82.46-19.21 82.12-20.01 81.78-20.8 81.19-21.39 80.61-21.97 79.81-22.31 79.02-22.66 78.12-22.66L78.12-22.66 76.12-22.66Q75.21-22.66 74.42-22.31 73.63-21.97 73.04-21.39 72.45-20.8 72.11-20.01 71.77-19.21 71.77-18.31L71.77-18.31 71.77-14.6 82.46-14.6ZM101.82-22.14L98.82-22.14Q97.91-22.14 97.12-21.8 96.33-21.46 95.74-20.87 95.16-20.29 94.81-19.49 94.47-18.7 94.47-17.8L94.47-17.8 94.47 0 91.47 0 91.47-25 92.47-25 94.11-22.46Q95.13-23.85 96.68-24.67 98.23-25.49 100.06-25.49L100.06-25.49 101.82-25.49 101.82-22.14Z" fill="#f7d65a" data-fill-palette-color="primary"></path><path d="M136.51-8.11L136.51-8.11Q136.51-6.32 135.84-4.76 135.17-3.2 134-2.03 132.82-0.85 131.26-0.18 129.7 0.49 127.92 0.49L127.92 0.49 125.43 0.49Q123.64 0.49 122.07-0.18 120.49-0.85 119.32-2.03 118.15-3.2 117.48-4.76 116.81-6.32 116.81-8.11L116.81-8.11 116.81-26.9Q116.81-28.69 117.48-30.25 118.15-31.81 119.32-32.98 120.49-34.16 122.07-34.83 123.64-35.5 125.43-35.5L125.43-35.5 127.92-35.5Q129.7-35.5 131.26-34.83 132.82-34.16 134-32.98 135.17-31.81 135.84-30.25 136.51-28.69 136.51-26.9L136.51-26.9 136.51-25.49 133.36-25 133.36-26.9Q133.36-28.08 132.92-29.09 132.48-30.1 131.72-30.86 130.97-31.62 129.95-32.06 128.94-32.5 127.77-32.5L127.77-32.5 125.57-32.5Q124.4-32.5 123.39-32.06 122.37-31.62 121.61-30.86 120.84-30.1 120.4-29.09 119.96-28.08 119.96-26.9L119.96-26.9 119.96-8.11Q119.96-6.93 120.4-5.92 120.84-4.91 121.61-4.14 122.37-3.37 123.39-2.93 124.4-2.49 125.57-2.49L125.57-2.49 127.77-2.49Q128.94-2.49 129.95-2.93 130.97-3.37 131.72-4.14 132.48-4.91 132.92-5.92 133.36-6.93 133.36-8.11L133.36-8.11 133.36-10.01 136.51-9.5 136.51-8.11ZM146.52 0L143.51 0 143.51-35.01 146.52-35.01 146.52 0ZM170.22-6.86L170.22-6.86Q170.22-5.35 169.65-4 169.07-2.66 168.07-1.66 167.07-0.66 165.73-0.09 164.39 0.49 162.87 0.49L162.87 0.49 160.87 0.49Q159.36 0.49 158.01-0.09 156.67-0.66 155.67-1.66 154.67-2.66 154.1-4 153.52-5.35 153.52-6.86L153.52-6.86 153.52-18.14Q153.52-19.65 154.1-21 154.67-22.34 155.67-23.34 156.67-24.34 158.01-24.91 159.36-25.49 160.87-25.49L160.87-25.49 162.87-25.49Q164.39-25.49 165.73-24.91 167.07-24.34 168.07-23.34 169.07-22.34 169.65-21 170.22-19.65 170.22-18.14L170.22-18.14 170.22-6.86ZM167.22-6.69L167.22-18.31Q167.22-19.21 166.88-20.01 166.53-20.8 165.95-21.39 165.36-21.97 164.57-22.31 163.78-22.66 162.87-22.66L162.87-22.66 160.87-22.66Q159.97-22.66 159.17-22.31 158.38-21.97 157.79-21.39 157.21-20.8 156.87-20.01 156.52-19.21 156.52-18.31L156.52-18.31 156.52-6.69Q156.52-5.79 156.87-4.99 157.21-4.2 157.79-3.61 158.38-3.03 159.17-2.69 159.97-2.34 160.87-2.34L160.87-2.34 162.87-2.34Q163.78-2.34 164.57-2.69 165.36-3.03 165.95-3.61 166.53-4.2 166.88-4.99 167.22-5.79 167.22-6.69L167.22-6.69ZM188.06 0L185.33 0Q183.96 0 182.75-0.51 181.55-1.03 180.66-1.93 179.76-2.83 179.24-4.03 178.71-5.22 178.71-6.59L178.71-6.59 178.71-22.14 174.22-22.14 174.22-25 178.71-25 178.71-31.01 181.72-31.49 181.72-25 188.06-25 188.06-22.14 181.72-22.14 181.72-6.45Q181.72-5.69 182-5.04 182.28-4.39 182.77-3.91 183.26-3.42 183.91-3.14 184.57-2.86 185.33-2.86L185.33-2.86 188.06-2.86 188.06 0ZM210.28 0L207.28 0 207.28-18.31Q207.28-19.21 206.93-20.01 206.59-20.8 206.01-21.39 205.42-21.97 204.63-22.31 203.83-22.66 202.93-22.66L202.93-22.66 200.93-22.66Q200.03-22.66 199.23-22.31 198.44-21.97 197.85-21.39 197.27-20.8 196.92-20.01 196.58-19.21 196.58-18.31L196.58-18.31 196.58 0 193.58 0 193.58-35.01 196.58-35.01 196.58-22.9Q197.61-24.12 199.05-24.8 200.49-25.49 202.17-25.49L202.17-25.49 202.93-25.49Q204.44-25.49 205.79-24.91 207.13-24.34 208.13-23.34 209.13-22.34 209.71-21 210.28-19.65 210.28-18.14L210.28-18.14 210.28 0ZM220.53-31.01L217.04-31.01 217.04-35.01 220.53-35.01 220.53-31.01ZM220.29 0L217.28 0 217.28-25 220.29-25 220.29 0ZM243.99 0L240.99 0 240.99-18.31Q240.99-19.21 240.65-20.01 240.3-20.8 239.72-21.39 239.13-21.97 238.34-22.31 237.54-22.66 236.64-22.66L236.64-22.66 234.64-22.66Q233.74-22.66 232.94-22.31 232.15-21.97 231.56-21.39 230.98-20.8 230.64-20.01 230.29-19.21 230.29-18.31L230.29-18.31 230.29 0 227.29 0 227.29-25 228.29-25 229.93-22.46Q230.95-23.85 232.5-24.67 234.05-25.49 235.88-25.49L235.88-25.49 236.64-25.49Q238.16-25.49 239.5-24.91 240.84-24.34 241.84-23.34 242.84-22.34 243.42-21 243.99-19.65 243.99-18.14L243.99-18.14 243.99 0ZM266.94 3.15L266.94 3.15Q266.94 4.66 266.36 5.93 265.79 7.2 264.79 8.11 263.79 9.01 262.44 9.51 261.1 10.01 259.59 10.01L259.59 10.01 258.34 10.01Q256.83 10.01 255.49 9.51 254.14 9.01 253.14 8.11 252.14 7.2 251.57 5.93 250.99 4.66 250.99 3.15L250.99 3.15 250.99 3.05Q250.99 1.59 251.53 0.37 252.07-0.85 253-1.76L253-1.76Q251.82-2.47 251.13-3.67 250.43-4.88 250.43-6.35L250.43-6.35Q250.43-7.67 250.99-8.8 251.56-9.94 252.53-10.64L252.53-10.64Q251.36-11.67 250.68-13.11 249.99-14.55 249.99-16.26L249.99-16.26 249.99-18.14Q249.99-19.65 250.57-21 251.14-22.34 252.14-23.34 253.14-24.34 254.49-24.91 255.83-25.49 257.34-25.49L257.34-25.49 258.59-25.49Q260.42-25.49 261.97-24.67 263.52-23.85 264.54-22.46L264.54-22.46 266.18-25 267.18-25 267.18-16.26Q267.18-14.75 266.61-13.4 266.03-12.06 265.03-11.06 264.03-10.06 262.69-9.48 261.35-8.91 259.83-8.91L259.83-8.91 255.49-8.91Q254.97-8.91 254.51-8.7 254.05-8.5 253.69-8.15 253.34-7.81 253.14-7.34 252.95-6.86 252.95-6.35L252.95-6.35Q252.95-5.83 253.14-5.37 253.34-4.91 253.69-4.55 254.05-4.2 254.51-4 254.97-3.81 255.49-3.81L255.49-3.81 259.59-3.81Q261.1-3.81 262.44-3.31 263.79-2.81 264.79-1.9 265.79-1 266.36 0.27 266.94 1.54 266.94 3.05L266.94 3.05 266.94 3.15ZM264.2-16.09L264.2-18.31Q264.2-19.21 263.86-20.01 263.52-20.8 262.92-21.39 262.32-21.97 261.53-22.31 260.74-22.66 259.83-22.66L259.83-22.66 257.34-22.66Q256.44-22.66 255.65-22.31 254.85-21.97 254.27-21.39 253.68-20.8 253.34-20.01 253-19.21 253-18.31L253-18.31 253-16.09Q253-15.19 253.34-14.39 253.68-13.6 254.27-13.01 254.85-12.43 255.65-12.08 256.44-11.74 257.34-11.74L257.34-11.74 259.83-11.74Q260.74-11.74 261.53-12.08 262.32-12.43 262.92-13.01 263.52-13.6 263.86-14.39 264.2-15.19 264.2-16.09L264.2-16.09ZM264.08 3.3L264.08 2.91Q264.08 2 263.74 1.28 263.4 0.56 262.81 0.07 262.22-0.42 261.43-0.68 260.64-0.95 259.73-0.95L259.73-0.95 258.2-0.95Q257.29-0.95 256.5-0.68 255.71-0.42 255.12 0.07 254.53 0.56 254.19 1.28 253.85 2 253.85 2.91L253.85 2.91 253.85 3.3Q253.85 4.2 254.19 4.91 254.53 5.62 255.12 6.12 255.71 6.62 256.5 6.88 257.29 7.15 258.2 7.15L258.2 7.15 259.73 7.15Q260.64 7.15 261.43 6.88 262.22 6.62 262.81 6.12 263.4 5.62 263.74 4.91 264.08 4.2 264.08 3.3L264.08 3.3Z" fill="#f7d65a" data-fill-palette-color="primary"></path></g></svg></g></svg></g></svg></g></svg></g><g transform="matrix(1,0,0,1,150.41874431000835,0)"><svg viewBox="0 0 94.68251137998328 94.68251137998328" height="94.68251137998328" width="94.68251137998328"><g><svg xmlns="http://www.w3.org/2000/svg" xmlns:xlink="http://www.w3.org/1999/xlink" version="1.1" x="0" y="0" viewBox="5 5 90 90" style="enable-background:new 0 0 100 100;" xml:space="preserve" height="94.68251137998328" width="94.68251137998328" class="icon-icon-0" data-fill-palette-color="accent" id="icon-0"><g fill="#f7d65a" data-fill-palette-color="accent"><path d="M84 5H16C9.9 5 5 9.6 5 15.3V67C5 72.7 9.9 77.3 16 77.3H23.2V92.6C23.2 93.5 23.8 94.4 24.7 94.8 25.1 95 25.4 95 25.8 95 26.4 95 27 94.8 27.5 94.5L50.2 77.3H84C90.1 77.3 95 72.7 95 67V15.3C95 9.6 90.1 5 84 5M89.9 66.9C89.9 69.9 87.3 72.3 84.1 72.3H49.2C48.6 72.3 48 72.5 47.5 72.8L28.4 87.3V74.7C28.4 73.4 27.2 72.3 25.8 72.3H16C12.8 72.3 10.2 69.9 10.2 66.9V15.5C10.2 12.5 12.8 10.1 16 10.1H84.2C87.4 10.1 90 12.5 90 15.5V66.9z" fill="#f7d65a" data-fill-palette-color="accent"></path><path d="M44.4 39.8C45.4 39.3 46.1 38.7 46.6 38.1 47.5 37 48 35.6 48 33.8 48 32.1 47.6 30.6 46.7 29.3 45.2 27.3 42.7 26.2 39.1 26.2H24.9V55.4H38.1C39.6 55.4 41 55.3 42.2 55 43.5 54.7 44.6 54.2 45.5 53.5 46.3 52.9 47 52.1 47.6 51.2 48.5 49.8 48.9 48.3 48.9 46.5 48.9 44.8 48.5 43.4 47.8 42.2 47 41.2 45.9 40.4 44.4 39.8M30.8 31.4H37.2C38.6 31.4 39.7 31.6 40.7 31.9 41.7 32.3 42.3 33.2 42.3 34.6 42.3 35.8 41.9 36.7 41.1 37.2S39.3 37.9 38 37.9H30.9V31.4zM40.8 49.9C40.1 50.2 39.1 50.4 37.8 50.4H30.7V42.6H37.9C39.2 42.6 40.1 42.8 40.8 43.1 42 43.7 42.7 44.7 42.7 46.2 42.7 48.1 42.1 49.3 40.8 49.9" fill="#f7d65a" data-fill-palette-color="accent"></path><polygon points="60.3,42.7 74.5,42.7 74.5,37.7 60.3,37.7 60.3,31.5 75.7,31.5 75.7,26.3 54.3,26.3 54.3,55.5 76.4,55.5 76.4,50.2    60.3,50.2  " fill="#f7d65a" data-fill-palette-color="accent"></polygon></g></svg></g></svg></g><g></g></svg></g><defs></defs></svg><rect width="395.52" height="179.36759092884307" fill="none" stroke="none" visibility="hidden"></rect></g></svg></g></svg>